HIERARCHY
ROOT Hips
{
	OFFSET 27.261290 0.053301 7.659307
	CHANNELS 6 Xposition Yposition Zposition Zrotation Yrotation Xrotation 
	JOINT Spine
	{
		OFFSET -0.000036 8.340404 -2.713908
		CHANNELS 3 Zrotation Yrotation Xrotation
		JOINT Spine1
		{
			OFFSET -0.000059 11.909938 -2.100048
			CHANNELS 3 Zrotation Yrotation Xrotation
			JOINT Spine2
			{
				OFFSET -0.000011 12.047657 -1.054019
				CHANNELS 3 Zrotation Yrotation Xrotation
				JOINT Spine3
				{
					OFFSET 0.000017 12.093712 0.000029
					CHANNELS 3 Zrotation Yrotation Xrotation
					JOINT Neck
					{
						OFFSET -0.000056 15.549044 1.554927
						CHANNELS 3 Zrotation Yrotation Xrotation
						JOINT Neck1
						{
							OFFSET 0.000001 4.687317 0.410089
							CHANNELS 3 Zrotation Yrotation Xrotation
							JOINT Head
							{
								OFFSET 0.000011 4.633859 0.817019
								CHANNELS 3 Zrotation Yrotation Xrotation
								JOINT HeadEnd
								{
									OFFSET -0.000035 9.727724 -0.000020
									CHANNELS 3 Zrotation Yrotation Xrotation
									End Site
									{
										OFFSET 0.000000 0.000000 0.000000
									}
								}
							}
						}
					}
					JOINT RightShoulder
					{
						OFFSET -0.000083 11.106484 6.072624
						CHANNELS 3 Zrotation Yrotation Xrotation
						JOINT RightArm
						{
							OFFSET -19.427968 0.000077 0.000014
							CHANNELS 3 Zrotation Yrotation Xrotation
							JOINT RightForeArm
							{
								OFFSET -29.350740 0.000006 0.000039
								CHANNELS 3 Zrotation Yrotation Xrotation
								JOINT RightHand
								{
									OFFSET -27.018098 -0.000011 -0.000094
									CHANNELS 3 Zrotation Yrotation Xrotation
									JOINT RightHandMiddle1
									{
										OFFSET -9.244029 -0.000033 0.000027
										CHANNELS 3 Zrotation Yrotation Xrotation
										JOINT RightHandMiddle2
										{
											OFFSET -4.870034 0.000038 0.000003
											CHANNELS 3 Zrotation Yrotation Xrotation
											JOINT RightHandMiddle3
											{
												OFFSET -3.169042 -0.000048 0.000022
												CHANNELS 3 Zrotation Yrotation Xrotation
												JOINT RightHandMiddle4
												{
													OFFSET -1.888403 0.000050 -0.000006
													CHANNELS 3 Zrotation Yrotation Xrotation
													End Site
													{
														OFFSET 0.000000 0.000000 0.000000
													}
												}
											}
										}
									}
									JOINT RightHandRing
									{
										OFFSET -0.250026 -0.250025 -0.956504
										CHANNELS 3 Zrotation Yrotation Xrotation
										JOINT RightHandRing1
										{
											OFFSET -8.140198 -0.000022 -0.734590
											CHANNELS 3 Zrotation Yrotation Xrotation
											JOINT RightHandRing2
											{
												OFFSET -4.501545 -0.000034 -0.406227
												CHANNELS 3 Zrotation Yrotation Xrotation
												JOINT RightHandRing3
												{
													OFFSET -3.068835 -0.000006 -0.276965
													CHANNELS 3 Zrotation Yrotation Xrotation
													JOINT RightHandRing4
													{
														OFFSET -1.869881 0.000028 -0.168747
														CHANNELS 3 Zrotation Yrotation Xrotation
														End Site
														{
															OFFSET 0.000000 0.000000 0.000000
														}
													}
												}
											}
										}
										JOINT RightHandPinky
										{
											OFFSET -0.162991 -0.249978 -0.975041
											CHANNELS 3 Zrotation Yrotation Xrotation
											JOINT RightHandPinky1
											{
												OFFSET -6.681506 0.000020 -1.494108
												CHANNELS 3 Zrotation Yrotation Xrotation
												JOINT RightHandPinky2
												{
													OFFSET -3.580976 0.000010 -0.800783
													CHANNELS 3 Zrotation Yrotation Xrotation
													JOINT RightHandPinky3
													{
														OFFSET -2.276503 -0.000019 -0.509109
														CHANNELS 3 Zrotation Yrotation Xrotation
														JOINT RightHandPinky4
														{
															OFFSET -1.690375 0.000000 -0.377991
															CHANNELS 3 Zrotation Yrotation Xrotation
															End Site
															{
																OFFSET 0.000000 0.000000 0.000000
															}
														}
													}
												}
											}
										}
									}
									JOINT RightHandIndex
									{
										OFFSET -0.250006 -0.249974 0.956479
										CHANNELS 3 Zrotation Yrotation Xrotation
										JOINT RightHandIndex1
										{
											OFFSET -8.934102 0.000031 0.806215
											CHANNELS 3 Zrotation Yrotation Xrotation
											JOINT RightHandIndex2
											{
												OFFSET -4.694673 0.000013 0.423653
												CHANNELS 3 Zrotation Yrotation Xrotation
												JOINT RightHandIndex3
												{
													OFFSET -2.811704 0.000022 0.253749
													CHANNELS 3 Zrotation Yrotation Xrotation
													JOINT RightHandIndex4
													{
														OFFSET -1.709956 0.000005 0.154328
														CHANNELS 3 Zrotation Yrotation Xrotation
														End Site
														{
															OFFSET 0.000000 0.000000 0.000000
														}
													}
												}
											}
										}
										JOINT RightHandThumb1
										{
											OFFSET -0.163039 -0.749965 0.975111
											CHANNELS 3 Zrotation Yrotation Xrotation
											JOINT RightHandThumb2
											{
												OFFSET -5.411672 0.835507 2.244682
												CHANNELS 3 Zrotation Yrotation Xrotation
												JOINT RightHandThumb3
												{
													OFFSET -3.567174 0.550787 1.479601
													CHANNELS 3 Zrotation Yrotation Xrotation
													JOINT RightHandThumb4
													{
														OFFSET -2.150547 0.332025 0.892053
														CHANNELS 3 Zrotation Yrotation Xrotation
														End Site
														{
															OFFSET 0.000000 0.000000 0.000000
														}
													}
												}
											}
										}
									}
								}
							}
						}
					}
					JOINT LeftShoulder
					{
						OFFSET -0.000040 11.106515 6.072605
						CHANNELS 3 Zrotation Yrotation Xrotation
						JOINT LeftArm
						{
							OFFSET 19.427859 0.000040 0.000007
							CHANNELS 3 Zrotation Yrotation Xrotation
							JOINT LeftForeArm
							{
								OFFSET 29.350757 -0.000018 -0.000025
								CHANNELS 3 Zrotation Yrotation Xrotation
								JOINT LeftHand
								{
									OFFSET 27.018028 -0.000024 -0.000004
									CHANNELS 3 Zrotation Yrotation Xrotation
									JOINT LeftHandMiddle1
									{
										OFFSET 9.402682 -0.000010 -0.000022
										CHANNELS 3 Zrotation Yrotation Xrotation
										JOINT LeftHandMiddle2
										{
											OFFSET 4.950084 0.000025 -0.000010
											CHANNELS 3 Zrotation Yrotation Xrotation
											JOINT LeftHandMiddle3
											{
												OFFSET 3.211942 -0.000019 -0.000012
												CHANNELS 3 Zrotation Yrotation Xrotation
												JOINT LeftHandMiddle4
												{
													OFFSET 1.927597 0.000037 0.000039
													CHANNELS 3 Zrotation Yrotation Xrotation
													End Site
													{
														OFFSET 0.000000 0.000000 0.000000
													}
												}
											}
										}
									}
									JOINT LeftHandRing
									{
										OFFSET 0.250013 -0.250000 -0.906148
										CHANNELS 3 Zrotation Yrotation Xrotation
										JOINT LeftHandRing1
										{
											OFFSET 8.286076 0.000019 -0.747703
											CHANNELS 3 Zrotation Yrotation Xrotation
											JOINT LeftHandRing2
											{
												OFFSET 4.585477 -0.000018 -0.413808
												CHANNELS 3 Zrotation Yrotation Xrotation
												JOINT LeftHandRing3
												{
													OFFSET 3.124427 -0.000048 -0.281975
													CHANNELS 3 Zrotation Yrotation Xrotation
													JOINT LeftHandRing4
													{
														OFFSET 1.908744 -0.000010 -0.172301
														CHANNELS 3 Zrotation Yrotation Xrotation
														End Site
														{
															OFFSET 0.000000 0.000000 0.000000
														}
													}
												}
											}
										}
										JOINT LeftHandPinky
										{
											OFFSET 0.167576 -0.249956 -0.924970
											CHANNELS 3 Zrotation Yrotation Xrotation
											JOINT LeftHandPinky1
											{
												OFFSET 6.823510 -0.000010 -1.525886
												CHANNELS 3 Zrotation Yrotation Xrotation
												JOINT LeftHandPinky2
												{
													OFFSET 3.642835 -0.000008 -0.814642
													CHANNELS 3 Zrotation Yrotation Xrotation
													JOINT LeftHandPinky3
													{
														OFFSET 2.333085 0.000004 -0.521759
														CHANNELS 3 Zrotation Yrotation Xrotation
														JOINT LeftHandPinky4
														{
															OFFSET 1.725465 0.000010 -0.385857
															CHANNELS 3 Zrotation Yrotation Xrotation
															End Site
															{
																OFFSET 0.000000 0.000000 0.000000
															}
														}
													}
												}
											}
										}
									}
									JOINT LeftHandIndex
									{
										OFFSET 0.249951 -0.249963 0.906141
										CHANNELS 3 Zrotation Yrotation Xrotation
										JOINT LeftHandIndex1
										{
											OFFSET 9.087980 0.000048 0.820152
											CHANNELS 3 Zrotation Yrotation Xrotation
											JOINT LeftHandIndex2
											{
												OFFSET 4.776558 0.000014 0.431069
												CHANNELS 3 Zrotation Yrotation Xrotation
												JOINT LeftHandIndex3
												{
													OFFSET 2.865094 -0.000007 0.258573
													CHANNELS 3 Zrotation Yrotation Xrotation
													JOINT LeftHandIndex4
													{
														OFFSET 1.745465 -0.000030 0.157522
														CHANNELS 3 Zrotation Yrotation Xrotation
														End Site
														{
															OFFSET 0.000000 0.000000 0.000000
														}
													}
												}
											}
										}
										JOINT LeftHandThumb1
										{
											OFFSET 0.167558 -0.749973 0.924943
											CHANNELS 3 Zrotation Yrotation Xrotation
											JOINT LeftHandThumb2
											{
												OFFSET 5.551461 0.857140 2.302721
												CHANNELS 3 Zrotation Yrotation Xrotation
												JOINT LeftHandThumb3
												{
													OFFSET 3.625612 0.559758 1.503874
													CHANNELS 3 Zrotation Yrotation Xrotation
													JOINT LeftHandThumb4
													{
														OFFSET 2.195268 0.338949 0.910573
														CHANNELS 3 Zrotation Yrotation Xrotation
														End Site
														{
															OFFSET 0.000000 0.000000 0.000000
														}
													}
												}
											}
										}
									}
								}
							}
						}
					}
				}
			}
		}
	}
	JOINT RightUpLeg
	{
		OFFSET -8.786510 0.000003 0.000016
		CHANNELS 3 Zrotation Yrotation Xrotation
		JOINT RightLeg
		{
			OFFSET -0.000023 -42.170424 -0.000034
			CHANNELS 3 Zrotation Yrotation Xrotation
			JOINT RightFoot
			{
				OFFSET -0.000023 -45.949101 0.000048
				CHANNELS 3 Zrotation Yrotation Xrotation
				JOINT RightForeFoot
				{
					OFFSET 0.000005 -4.685750 0.000001
					CHANNELS 3 Zrotation Yrotation Xrotation
					JOINT RightToeBase
					{
						OFFSET -0.000046 -0.000013 18.351073
						CHANNELS 3 Zrotation Yrotation Xrotation
						JOINT RightToeBaseEnd
						{
							OFFSET -0.000027 -0.000024 6.416937
							CHANNELS 3 Zrotation Yrotation Xrotation
							End Site
							{
								OFFSET 0.000000 0.000000 0.000000
							}
						}
					}
				}
			}
		}
	}
	JOINT LeftUpLeg
	{
		OFFSET 8.786523 -0.000085 0.000018
		CHANNELS 3 Zrotation Yrotation Xrotation
		JOINT LeftLeg
		{
			OFFSET 0.000065 -42.170405 0.000013
			CHANNELS 3 Zrotation Yrotation Xrotation
			JOINT LeftFoot
			{
				OFFSET 0.000024 -45.949178 -0.000023
				CHANNELS 3 Zrotation Yrotation Xrotation
				JOINT LeftForeFoot
				{
					OFFSET -0.000008 -4.685823 0.000046
					CHANNELS 3 Zrotation Yrotation Xrotation
					JOINT LeftToeBase
					{
						OFFSET 0.000032 -0.000011 18.351073
						CHANNELS 3 Zrotation Yrotation Xrotation
						JOINT LeftToeBaseEnd
						{
							OFFSET 0.000060 -0.000029 7.522013
							CHANNELS 3 Zrotation Yrotation Xrotation
							End Site
							{
								OFFSET 0.000000 0.000000 0.000000
							}
						}
					}
				}
			}
		}
	}
}
MOTION
Frames: 4
Frame Time: 0.066667
27.261290 0.053301 7.659307 9.112344 20.832178 -11.703249 -6.096989 2.865627 14.550910 0.533497 -0.097519 -0.345718 0.806035 -0.813690 1.460843 2.875273 0.432317 7.873467 7.318904 -2.103740 6.906666 -14.905188 2.493633 7.790045 -3.852522 0.717955 1.592398 -0.001485 0.000031 0.000689 8.021779 -9.508488 -1.297753 70.462494 1.133154 18.207441 -0.000056 78.632660 -18.449989 -9.022169 -12.164367 -0.006321 35.092232 -10.258673 0.001460 45.536797 0.001501 0.002581 19.679073 0.000668 0.000033 -0.000849 -0.001092 -0.001932 -2.089262 -1.931962 -2.836639 49.520473 -3.648470 -3.920714 54.525108 2.141929 -4.214883 21.046997 0.341758 -1.854049 -0.001405 0.000291 0.000090 -2.160182 -4.728260 -4.435430 35.714916 6.826265 -7.639457 51.408840 4.856005 -10.074705 38.485573 2.800251 -7.999960 0.000206 -0.000927 0.001417 0.339529 7.045396 0.186904 21.459599 -15.333531 2.017743 33.604931 -0.862056 2.861362 22.859215 -0.413210 2.008287 -0.000618 -0.000823 -0.001096 5.967900 4.632959 48.624126 1.286278 -4.191052 -0.052183 13.587327 -9.180035 3.320990 -0.002937 0.001405 0.002098 -8.696391 7.188620 -1.076919 -65.735031 1.498345 6.577458 -0.005581 -42.827297 5.617673 -10.519141 10.807007 0.009377 -32.395378 1.304935 0.000413 -16.776815 0.000383 -0.000244 -10.008835 -0.000664 -0.002322 0.000943 -0.001738 0.000465 -0.505994 0.671704 -9.825514 -21.881721 -0.393549 -1.928101 -17.069717 -0.228283 -1.519799 -1.252502 -0.001817 -0.115156 -0.001373 0.000310 0.000822 -0.086167 -0.503787 -9.911760 -5.867354 11.778108 -1.282105 -16.157335 -0.503177 -3.556066 -14.269266 -0.398148 -3.164500 -0.001104 -0.000885 -0.001817 2.116405 -6.468549 -6.362094 -23.966066 9.100926 2.143533 -7.990108 0.044703 0.718297 -1.498748 0.004378 0.133753 0.000866 -0.000215 0.000342 -6.611127 0.560608 46.991249 8.319275 -4.107608 -3.077321 0.000000 0.000000 0.000000 0.001615 -0.000192 0.000444 -24.559563 -6.868618 14.509229 -0.002329 -0.002814 11.650108 -0.000000 -0.000000 -0.000000 0.000000 0.000000 0.000000 -0.000000 0.000000 -0.000000 0.000000 0.000000 0.000000 -15.514276 3.655577 26.760386 0.002973 0.003039 -8.361725 0.000000 0.000000 -0.000000 0.000000 0.000000 -0.000000 -0.000000 0.000000 -0.000000 0.000000 -0.000000 0.000000 
26.455851 0.116209 8.040680 8.756708 20.318752 -11.735917 -6.175120 2.867495 14.141797 0.483148 -0.085965 -0.364878 0.720252 -0.799777 1.383526 2.760501 0.420699 7.759431 7.546135 -1.936566 7.687687 -15.221208 2.854970 7.508238 -3.832066 0.735069 1.392479 -0.001492 -0.000182 0.000698 7.861537 -9.525102 -1.272841 70.424759 0.760737 18.293453 0.001555 78.089684 -17.542130 -8.279663 -12.226534 -0.008361 35.050488 -10.318689 0.002048 45.324951 0.001945 0.002672 19.621792 0.000618 0.000474 -0.000865 -0.000946 -0.001865 -2.084761 -1.964872 -2.782691 49.711720 -3.554033 -3.932078 54.452221 2.134991 -4.211583 21.012486 0.340980 -1.851163 -0.001606 -0.000209 -0.000026 -2.165749 -4.769455 -4.397789 35.999649 7.059959 -7.699162 51.651276 4.897806 -10.109724 38.599045 2.814343 -8.019484 0.000351 -0.001221 0.001532 0.356074 7.039100 0.154968 21.284758 -15.457796 2.004800 33.390827 -0.853081 2.845713 22.841072 -0.412456 2.007144 -0.000591 -0.001064 -0.001223 5.967512 4.622672 48.592728 1.192433 -4.228124 -0.096352 13.603363 -9.195560 3.323513 -0.002857 0.001024 0.001819 -8.715104 7.171638 -1.077283 -66.085655 1.819402 7.507110 -0.005458 -42.590187 5.909471 -10.775187 10.787308 0.008968 -32.106308 1.303224 0.000644 -16.587984 0.000181 -0.000271 -10.013241 -0.000633 -0.002146 0.000850 -0.001706 0.000525 -0.526906 0.683766 -9.992790 -21.728418 -0.259122 -1.914571 -17.404501 -0.234119 -1.548940 -1.329467 -0.001315 -0.122070 -0.001267 -0.000066 0.000629 -0.067030 -0.475764 -9.810059 -5.631729 11.861259 -1.229939 -16.131142 -0.497494 -3.552644 -14.155155 -0.389716 -3.139432 -0.000954 -0.001048 -0.002149 2.122415 -6.486823 -6.383876 -23.605381 8.998056 2.112787 -7.721061 0.037796 0.695296 -1.396740 0.003756 0.124445 0.000748 -0.000489 0.000009 -6.684521 0.444322 46.772850 8.519801 -4.067828 -3.182415 0.000000 0.000000 0.000000 0.001464 -0.000364 0.000278 -23.744881 -7.062302 15.113231 -0.002295 -0.002384 10.444791 -0.000000 -0.000000 -0.000000 0.000000 0.000000 0.000000 -0.000000 0.000000 -0.000000 0.000000 0.000000 0.000000 -14.828065 3.562439 26.987791 0.002667 0.002878 -8.587910 0.000000 0.000000 -0.000000 0.000000 0.000000 -0.000000 -0.000000 0.000000 -0.000000 0.000000 -0.000000 0.000000 
25.661645 0.176505 8.433029 8.425731 19.857988 -11.742686 -6.237985 2.864770 13.761742 0.437886 -0.076253 -0.382699 0.645817 -0.799759 1.305719 2.664649 0.408305 7.642712 7.745897 -1.781347 8.427831 -15.516503 3.189105 7.247256 -3.814985 0.751287 1.207149 -0.001486 -0.000386 0.000723 7.717162 -9.545131 -1.251458 70.384033 0.394511 18.281382 0.002707 77.354294 -16.650743 -7.608440 -12.246361 -0.010197 35.021580 -10.366947 0.002607 45.165638 0.002313 0.002745 19.593895 0.000579 0.000863 -0.000874 -0.000827 -0.001787 -2.082275 -1.992297 -2.738789 49.880890 -3.471795 -3.942046 54.419918 2.131377 -4.210326 21.000767 0.340920 -1.850195 -0.001762 -0.000657 -0.000119 -2.174373 -4.807262 -4.364316 36.251293 7.266525 -7.751888 51.904587 4.942270 -10.145976 38.715614 2.829044 -8.039544 0.000483 -0.001490 0.001628 0.368762 7.035298 0.125301 21.139059 -15.563122 1.994199 33.217030 -0.845953 2.832972 22.842028 -0.412349 2.007554 -0.000553 -0.001277 -0.001336 5.968279 4.628525 48.551731 1.098939 -4.258247 -0.139219 13.615437 -9.207822 3.325312 -0.002768 0.000698 0.001580 -8.733027 7.151762 -1.076678 -66.387558 2.090965 8.291231 -0.005320 -42.355743 6.117618 -11.022326 10.754541 0.008618 -31.852333 1.308341 0.000829 -16.348370 0.000015 -0.000294 -9.984633 -0.000602 -0.001991 0.000766 -0.001676 0.000569 -0.543323 0.694052 -10.143454 -21.609791 -0.121914 -1.903982 -17.642147 -0.237824 -1.569601 -1.375901 -0.000849 -0.126234 -0.001173 -0.000401 0.000470 -0.046440 -0.447716 -9.714904 -5.459986 11.931419 -1.191666 -16.082104 -0.490986 -3.543986 -14.037551 -0.381613 -3.113618 -0.000822 -0.001188 -0.002426 2.131889 -6.500864 -6.391703 -23.253290 8.884575 2.082793 -7.383973 0.031699 0.666053 -1.266360 0.003359 0.112577 0.000659 -0.000735 -0.000275 -6.739671 0.319082 46.559921 8.706578 -4.030999 -3.280036 0.000000 0.000000 0.000000 0.001316 -0.000497 0.000143 -22.947910 -7.242086 15.677256 -0.002259 -0.001996 9.304811 -0.000000 -0.000000 -0.000000 0.000000 0.000000 0.000000 -0.000000 0.000000 -0.000000 0.000000 0.000000 0.000000 -14.140486 3.467416 27.186819 0.002413 0.002730 -8.797516 0.000000 0.000000 -0.000000 0.000000 -0.000000 -0.000000 -0.000000 0.000000 -0.000000 0.000000 0.000000 0.000000 
24.879499 0.234192 8.837074 8.118514 19.449957 -11.724879 -6.285590 2.857455 13.410836 0.397713 -0.068381 -0.399179 0.582729 -0.813636 1.227425 2.587720 0.395136 7.523322 7.918186 -1.638107 9.126862 -15.791002 3.495991 7.007320 -3.801278 0.766611 1.036409 -0.001468 -0.000579 0.000764 7.588656 -9.568598 -1.233605 70.340309 0.034411 18.171579 0.003455 76.422958 -15.777569 -7.008893 -12.224363 -0.011768 35.005524 -10.403455 0.003138 45.058949 0.002607 0.002799 19.595379 0.000551 0.001198 -0.000874 -0.000735 -0.001700 -2.081808 -2.014236 -2.704935 50.027946 -3.401798 -3.950628 54.428181 2.131087 -4.211110 21.011841 0.341578 -1.851148 -0.001874 -0.001051 -0.000188 -2.186054 -4.841681 -4.335010 36.469723 7.446004 -7.797657 52.168823 4.989390 -10.183438 38.835262 2.844354 -8.060143 0.000602 -0.001735 0.001705 0.377594 7.033990 0.097903 21.022558 -15.649576 1.985931 33.083591 -0.840681 2.823159 22.862083 -0.412889 2.009517 -0.000503 -0.001462 -0.001437 5.970206 4.650521 48.501144 1.005798 -4.281422 -0.180787 13.623544 -9.216815 3.326386 -0.002670 0.000427 0.001381 -8.750162 7.128995 -1.075105 -66.640823 2.313198 8.929983 -0.005167 -42.123756 6.241998 -11.260538 10.708730 0.008333 -31.633459 1.320297 0.000969 -16.057905 -0.000113 -0.000313 -9.923007 -0.000572 -0.001858 0.000691 -0.001649 0.000596 -0.555245 0.702562 -10.277491 -21.525812 0.018076 -1.896341 -17.782858 -0.239408 -1.581830 -1.391811 -0.000421 -0.127650 -0.001093 -0.000696 0.000343 -0.024397 -0.419642 -9.626297 -5.352211 11.988700 -1.167310 -16.010231 -0.483653 -3.530091 -13.916437 -0.373835 -3.087054 -0.000707 -0.001306 -0.002649 2.144828 -6.510672 -6.385575 -22.909794 8.760503 2.053552 -6.978632 0.026407 0.630537 -1.107589 0.003185 0.098148 0.000598 -0.000953 -0.000509 -6.776587 0.184880 46.352436 8.879609 -3.997132 -3.370188 0.000000 0.000000 0.000000 0.001171 -0.000589 0.000037 -22.168892 -7.407983 16.201225 -0.002222 -0.001650 8.230926 -0.000000 -0.000000 -0.000000 0.000000 0.000000 0.000000 -0.000000 0.000000 -0.000000 0.000000 0.000000 0.000000 -13.451514 3.370515 27.357403 0.002208 0.002595 -8.990531 0.000000 0.000000 -0.000000 0.000000 -0.000000 -0.000000 -0.000000 0.000000 -0.000000 0.000000 0.000000 0.000000 
